<svg width="239" height="259" viewBox="0 0 239 259" fill="none" xmlns="http://www.w3.org/2000/svg">
<path id="contour" d="M199.089 258.02C190.73 257.998 182.597 255.309 175.873 250.346C169.148 245.382 164.182 238.402 161.698 230.422C135.174 240.565 105.899 240.901 79.1486 231.369C52.3986 221.837 29.9331 203.063 15.801 178.431C1.66887 153.8 -3.20043 124.931 2.07065 97.0264C7.34173 69.1222 22.4065 44.0184 44.55 26.2393C66.6934 8.46022 94.4591 -0.824815 122.843 0.0575713C151.227 0.939957 178.362 11.9317 199.359 31.0519C220.355 50.1721 233.831 76.1632 237.359 104.341C240.887 132.519 234.234 161.03 218.599 184.736C226.101 189.037 231.973 195.696 235.301 203.678C238.629 211.66 239.227 220.518 237.002 228.874C234.777 237.231 229.854 244.619 222.998 249.89C216.142 255.16 207.736 258.019 199.089 258.02V258.02ZM163.014 227.761L163.312 228.827C165.977 238.329 172.307 246.384 180.909 251.219C189.512 256.055 199.683 257.276 209.186 254.614C218.688 251.952 226.744 245.624 231.582 237.022C236.42 228.421 237.644 218.25 234.984 208.747C233.62 203.917 231.297 199.411 228.155 195.497C225.013 191.583 221.115 188.342 216.693 185.967L215.717 185.445L216.335 184.527C231.971 161.284 238.76 133.207 235.471 105.387C232.182 77.5676 219.032 51.8479 198.407 32.8921C177.781 13.9362 151.045 2.99954 123.048 2.0652C95.05 1.13086 67.6445 10.2608 45.801 27.7993C23.9574 45.3379 9.12223 70.1237 3.98571 97.6619C-1.1508 125.2 3.75147 153.668 17.8035 177.901C31.8556 202.135 54.1269 220.531 80.5788 229.753C107.031 238.974 135.911 238.412 161.984 228.166L163.014 227.761Z" fill="#3F3D56"/>
<path id="firstLine" d="M183.481 104.095H54.0403C53.2461 104.095 52.4598 103.938 51.7261 103.634C50.9924 103.33 50.3257 102.885 49.7642 102.323C49.2026 101.762 48.7572 101.095 48.4532 100.362C48.1493 99.6279 47.9929 98.8415 47.9929 98.0474C47.9929 97.2532 48.1493 96.4668 48.4532 95.7331C48.7572 94.9994 49.2026 94.3328 49.7642 93.7712C50.3257 93.2097 50.9924 92.7642 51.7261 92.4603C52.4598 92.1564 53.2461 92 54.0403 92H183.481C184.275 92 185.061 92.1564 185.795 92.4603C186.528 92.7642 187.195 93.2097 187.757 93.7712C188.318 94.3328 188.764 94.9994 189.068 95.7331C189.372 96.4668 189.528 97.2532 189.528 98.0474C189.528 98.8415 189.372 99.6279 189.068 100.362C188.764 101.095 188.318 101.762 187.757 102.323C187.195 102.885 186.528 103.33 185.795 103.634C185.061 103.938 184.275 104.095 183.481 104.095H183.481Z" fill="#6C63FF"/>
<path id="secondLine" d="M183.481 125.095H54.0403C53.2461 125.095 52.4598 124.938 51.7261 124.634C50.9924 124.33 50.3257 123.885 49.7642 123.323C49.2026 122.762 48.7572 122.095 48.4532 121.362C48.1493 120.628 47.9929 119.842 47.9929 119.047C47.9929 118.253 48.1493 117.467 48.4532 116.733C48.7572 115.999 49.2026 115.333 49.7642 114.771C50.3257 114.21 50.9924 113.764 51.7261 113.46C52.4598 113.156 53.2461 113 54.0403 113H183.481C184.275 113 185.061 113.156 185.795 113.46C186.528 113.764 187.195 114.21 187.757 114.771C188.318 115.333 188.764 115.999 189.068 116.733C189.372 117.467 189.528 118.253 189.528 119.047C189.528 119.842 189.372 120.628 189.068 121.362C188.764 122.095 188.318 122.762 187.757 123.323C187.195 123.885 186.528 124.33 185.795 124.634C185.061 124.938 184.275 125.095 183.481 125.095H183.481Z" fill="#6C63FF"/>
<path id="thirdLine" d="M183.473 146.095H54.0327C52.4302 146.093 50.8939 145.455 49.7615 144.321C48.629 143.187 47.9929 141.65 47.9929 140.048C47.9929 138.445 48.629 136.908 49.7615 135.774C50.8939 134.64 52.4302 134.002 54.0327 134H183.473C185.077 134 186.615 134.637 187.749 135.771C188.884 136.905 189.521 138.444 189.521 140.048C189.521 141.652 188.884 143.19 187.749 144.324C186.615 145.458 185.077 146.095 183.473 146.095H183.473Z" fill="#6C63FF"/>
</svg>
