<svg width="401" height="401" viewBox="0 0 401 401" fill="none" xmlns="http://www.w3.org/2000/svg">
<rect width="394.687" height="395.12" transform="translate(0.981644 5.36197) rotate(-0.680973)" fill="black"/>
<g filter="url(#filter0_d)">
<line y1="-5" x2="125.261" y2="-5" transform="matrix(-0.694732 0.719269 -0.783909 -0.620876 113.351 112.563)" stroke="#C1F0FF" stroke-width="10"/>
<line y1="-5" x2="125.262" y2="-5" transform="matrix(0.711585 0.7026 -0.768971 0.639283 26.3946 202.603)" stroke="#C1F0FF" stroke-width="10"/>
</g>
<g filter="url(#filter1_d)">
<path d="M225.928 207.177C225.553 207.181 225.318 207.137 225.223 207.045C222.781 206.652 220.458 206.398 218.253 206.284C216.095 206.122 213.96 206.006 211.85 205.938C213.608 207.933 215.09 210.376 216.297 213.268C217.549 216.113 218.199 219.504 218.246 223.441C218.291 227.191 217.745 230.596 216.609 233.657C215.52 236.67 214.005 239.383 212.065 241.797C210.125 244.164 207.829 246.231 205.178 247.997C202.573 249.715 199.777 251.155 196.791 252.315C193.851 253.475 190.791 254.332 187.61 254.886C184.429 255.486 181.316 255.804 178.269 255.84C170.298 255.701 163.158 254.45 156.848 252.087C150.537 249.677 145.153 246.272 140.694 241.872C136.235 237.472 132.796 232.121 130.377 225.822C128.006 219.521 126.772 212.363 126.677 204.348C126.592 197.224 127.267 190.887 128.701 185.339C130.134 179.743 132.115 174.844 134.644 170.642C137.219 166.392 140.247 162.817 143.728 159.916C147.209 156.968 150.907 154.58 154.823 152.752C158.786 150.877 162.895 149.516 167.151 148.668C171.406 147.774 175.596 147.302 179.721 147.253C183.845 147.204 187.553 147.605 190.845 148.457C194.136 149.261 197.078 150.305 199.672 151.586C202.265 152.868 204.486 154.319 206.334 155.937C208.227 157.509 209.792 159.014 211.028 160.452L214.763 149.298C215.035 148.544 215.497 147.953 216.148 147.523C216.799 147.047 217.476 146.804 218.179 146.796C219.351 146.782 220.27 147.193 220.936 148.029C221.602 148.818 221.939 149.634 221.949 150.478C221.951 150.619 221.93 150.806 221.886 151.041C221.841 151.229 221.773 151.441 221.682 151.676L210.892 184.502C210.666 185.208 210.228 185.799 209.577 186.276C208.926 186.706 208.202 186.925 207.405 186.935C206.327 186.947 205.432 186.583 204.72 185.841C204.008 185.053 203.646 184.19 203.635 183.253C203.633 183.112 203.654 182.948 203.699 182.76C203.744 182.572 203.811 182.36 203.902 182.124L208.246 168.923C207.052 167.109 205.602 165.369 203.894 163.701C202.233 161.986 200.387 160.485 198.356 159.196C196.372 157.907 194.274 156.878 192.061 156.107C189.849 155.336 187.641 154.964 185.438 154.99C179.813 155.057 174.859 156.335 170.576 158.823C166.292 161.265 162.699 164.613 159.796 168.866C156.94 173.072 154.795 177.973 153.361 183.569C151.928 189.164 151.248 195.126 151.324 201.454C151.357 204.266 151.558 207.381 151.927 210.799C152.343 214.216 152.97 217.677 153.808 221.183C154.694 224.689 155.812 228.074 157.164 231.34C158.562 234.604 160.261 237.514 162.26 240.069C164.259 242.623 166.58 244.658 169.224 246.174C171.867 247.689 174.899 248.427 178.321 248.386C184.039 248.318 188.952 247.557 193.06 246.101C197.168 244.646 200.521 242.755 203.119 240.427C205.763 238.098 207.7 235.45 208.931 232.482C210.161 229.514 210.758 226.483 210.721 223.39C210.689 220.671 210.286 218.332 209.513 216.373C208.739 214.366 207.829 212.713 206.782 211.412C205.735 210.065 204.667 209.023 203.58 208.286C202.494 207.549 201.644 207.044 201.031 206.77C198.551 207.127 196.329 207.575 194.367 208.114C192.451 208.653 190.817 209.165 189.463 209.649C188.156 210.134 187.13 210.568 186.384 210.952C185.685 211.288 185.312 211.457 185.265 211.457C184.754 211.838 184.171 212.033 183.514 212.041C182.436 212.053 181.541 211.689 180.829 210.947C180.117 210.159 179.755 209.296 179.744 208.359C179.728 206.999 180.348 205.914 181.604 205.102C181.744 205.053 182.489 204.693 183.841 204.021C185.192 203.348 187.082 202.623 189.511 201.844C191.985 201.017 194.977 200.279 198.485 199.627C202.04 198.976 206.067 198.623 210.567 198.57C215.395 198.512 220.697 198.942 226.474 199.857C227.319 199.988 228.028 200.401 228.598 201.098C229.215 201.747 229.529 202.516 229.54 203.407C229.554 204.626 229.144 205.568 228.308 206.234C227.471 206.854 226.678 207.168 225.928 207.177Z" fill="url(#paint0_radial)"/>
</g>
<g filter="url(#filter2_d)">
<line y1="-5" x2="125.262" y2="-4.99999" transform="matrix(0.711623 0.702562 -0.804445 0.594028 285.998 122.84)" stroke="#C1F0FF" stroke-width="10"/>
<line y1="-5" x2="124.783" y2="-5" transform="matrix(-0.694723 0.719277 -0.816503 -0.577341 374.69 200)" stroke="#C1F0FF" stroke-width="10"/>
<line y1="-5.5" x2="211.864" y2="-5.5" transform="matrix(-0.15214 0.988359 -0.994262 -0.106969 268.88 95.2444)" stroke="#C1F0FF" stroke-width="11"/>
</g>
<defs>
<filter id="filter0_d" x="22.3283" y="112.563" width="104.891" height="186.049" filterUnits="userSpaceOnUse" color-interpolation-filters="sRGB">
<feFlood flood-opacity="0" result="BackgroundImageFix"/>
<feColorMatrix in="SourceAlpha" type="matrix" values="0 0 0 0 0 0 0 0 0 0 0 0 0 0 0 0 0 0 127 0"/>
<feOffset dy="4"/>
<feGaussianBlur stdDeviation="2"/>
<feColorMatrix type="matrix" values="0 0 0 0 0 0 0 0 0 0 0 0 0 0 0 0 0 0 0.25 0"/>
<feBlend mode="normal" in2="BackgroundImageFix" result="effect1_dropShadow"/>
<feBlend mode="normal" in="SourceGraphic" in2="effect1_dropShadow" result="shape"/>
</filter>
<filter id="filter1_d" x="122.67" y="146.796" width="110.871" height="117.045" filterUnits="userSpaceOnUse" color-interpolation-filters="sRGB">
<feFlood flood-opacity="0" result="BackgroundImageFix"/>
<feColorMatrix in="SourceAlpha" type="matrix" values="0 0 0 0 0 0 0 0 0 0 0 0 0 0 0 0 0 0 127 0"/>
<feOffset dy="4"/>
<feGaussianBlur stdDeviation="2"/>
<feColorMatrix type="matrix" values="0 0 0 0 0 0 0 0 0 0 0 0 0 0 0 0 0 0 0.25 0"/>
<feBlend mode="normal" in2="BackgroundImageFix" result="effect1_dropShadow"/>
<feBlend mode="normal" in="SourceGraphic" in2="effect1_dropShadow" result="shape"/>
</filter>
<filter id="filter2_d" x="232.647" y="95.2444" width="154.534" height="218.575" filterUnits="userSpaceOnUse" color-interpolation-filters="sRGB">
<feFlood flood-opacity="0" result="BackgroundImageFix"/>
<feColorMatrix in="SourceAlpha" type="matrix" values="0 0 0 0 0 0 0 0 0 0 0 0 0 0 0 0 0 0 127 0"/>
<feOffset dy="4"/>
<feGaussianBlur stdDeviation="2"/>
<feColorMatrix type="matrix" values="0 0 0 0 0 0 0 0 0 0 0 0 0 0 0 0 0 0 0.25 0"/>
<feBlend mode="normal" in2="BackgroundImageFix" result="effect1_dropShadow"/>
<feBlend mode="normal" in="SourceGraphic" in2="effect1_dropShadow" result="shape"/>
</filter>
<radialGradient id="paint0_radial" cx="0" cy="0" r="1" gradientUnits="userSpaceOnUse" gradientTransform="translate(186.161 180.733) rotate(138.901) scale(87.9145 54.8802)">
<stop stop-color="#FEFFFA"/>
<stop offset="0.510417" stop-color="#6354BE"/>
<stop offset="0.572917" stop-color="#9261E3"/>
<stop offset="1" stop-color="#EDDD4D"/>
</radialGradient>
</defs>
</svg>
