<svg width="314" height="175" viewBox="0 0 314 175" fill="none" xmlns="http://www.w3.org/2000/svg">
<path id="Vector" d="M313.592 21.6154H0.729446V6.33381C0.730976 4.98331 1.27087 3.6885 2.23064 2.73354C3.19041 1.77859 4.49169 1.24148 5.84901 1.23996H308.472C309.83 1.24148 311.131 1.77859 312.091 2.73354C313.05 3.6885 313.59 4.98331 313.592 6.33381V21.6154Z" fill="#6C63FF"/>
<path id="Vector_2" d="M308.312 175H5.68841C4.18028 174.998 2.73439 174.401 1.66798 173.34C0.601574 172.279 0.00172535 170.841 0 169.34V5.65984C0.00172535 4.15928 0.601574 2.72066 1.66798 1.65961C2.73439 0.598553 4.18028 0.00171669 5.68841 0H308.312C309.82 0.00171669 311.266 0.598553 312.332 1.65961C313.398 2.72066 313.998 4.15928 314 5.65984V169.34C313.998 170.841 313.398 172.279 312.332 173.34C311.266 174.401 309.82 174.998 308.312 175V175ZM5.68841 2.26393C4.78351 2.26492 3.91597 2.62301 3.27611 3.25966C2.63625 3.8963 2.27635 4.75949 2.27536 5.65984V169.34C2.27635 170.241 2.63625 171.104 3.27611 171.74C3.91597 172.377 4.78351 172.735 5.68841 172.736H308.312C309.216 172.735 310.084 172.377 310.724 171.74C311.364 171.104 311.724 170.241 311.725 169.34V5.65984C311.724 4.75949 311.364 3.8963 310.724 3.25966C310.084 2.62301 309.216 2.26492 308.312 2.26393H5.68841Z" fill="#3F3D56"/>
<path id="dotOne" d="M13.8709 18.5161C17.7617 18.5161 20.9158 15.3779 20.9158 11.5066C20.9158 7.6354 17.7617 4.49713 13.8709 4.49713C9.98016 4.49713 6.82605 7.6354 6.82605 11.5066C6.82605 15.3779 9.98016 18.5161 13.8709 18.5161Z" fill="#FF4040"/>
<path id="dotTwo" d="M32.9927 18.5161C36.8835 18.5161 40.0376 15.3779 40.0376 11.5066C40.0376 7.6354 36.8835 4.49713 32.9927 4.49713C29.1019 4.49713 25.9479 7.6354 25.9479 11.5066C25.9479 15.3779 29.1019 18.5161 32.9927 18.5161Z" fill="#FFF61A"/>
<path id="dotThree" d="M52.1145 18.5161C56.0053 18.5161 59.1594 15.3779 59.1594 11.5066C59.1594 7.6354 56.0053 4.49713 52.1145 4.49713C48.2237 4.49713 45.0697 7.6354 45.0697 11.5066C45.0697 15.3779 48.2237 18.5161 52.1145 18.5161Z" fill="white"/>
<path id="lineOne" d="M221.847 73.7655H74.5854C72.7607 73.7655 71.0108 73.0443 69.7205 71.7605C68.4303 70.4768 67.7054 68.7356 67.7054 66.9201C67.7054 65.1046 68.4303 63.3634 69.7205 62.0796C71.0108 60.7958 72.7607 60.0747 74.5854 60.0747H221.847C223.672 60.0747 225.422 60.7958 226.712 62.0796C228.002 63.3634 228.727 65.1046 228.727 66.9201C228.727 68.7356 228.002 70.4768 226.712 71.7605C225.422 73.0443 223.672 73.7655 221.847 73.7655V73.7655Z" fill="#FFDB5A"/>
<path id="lineTwo" d="M221.847 94.6975H74.5854C72.7607 94.6975 71.0108 93.9762 69.7205 92.6925C68.4303 91.4087 67.7054 89.6676 67.7054 87.852C67.7054 86.0365 68.4303 84.2954 69.7205 83.0116C71.0108 81.7278 72.7607 81.0066 74.5854 81.0066H221.847C223.672 81.0066 225.422 81.7278 226.712 83.0116C228.002 84.2954 228.727 86.0365 228.727 87.852C228.727 89.6676 228.002 91.4087 226.712 92.6925C225.422 93.9762 223.672 94.6975 221.847 94.6975V94.6975Z" fill="#FFDB5A"/>
<path id="lineThree" d="M221.847 115.629H74.5854C72.7622 115.627 71.0144 114.905 69.726 113.621C68.4376 112.338 67.714 110.598 67.714 108.784C67.714 106.97 68.4376 105.23 69.726 103.946C71.0144 102.663 72.7622 101.94 74.5854 101.938H221.847C222.751 101.937 223.647 102.113 224.483 102.457C225.319 102.8 226.078 103.304 226.718 103.94C227.358 104.576 227.865 105.331 228.212 106.162C228.558 106.993 228.736 107.884 228.736 108.784C228.736 109.684 228.558 110.574 228.212 111.406C227.865 112.237 227.358 112.992 226.718 113.628C226.078 114.263 225.319 114.767 224.483 115.111C223.647 115.454 222.751 115.631 221.847 115.629V115.629Z" fill="#FFDB5A"/>
</svg>
